<mxfile host="65bd71144e" scale="4" border="0">
    <diagram id="uQzkj0GxWRIt09j_zSgi" name="Page-1">
        <mxGraphModel dx="162" dy="452" grid="1" gridSize="10" guides="1" tooltips="1" connect="1" arrows="1" fold="1" page="1" pageScale="1" pageWidth="583" pageHeight="827" math="0" shadow="0">
            <root>
                <mxCell id="0"/>
                <mxCell id="1" parent="0"/>
                <mxCell id="JUgn5Z8Xf90ZQO_HXgAD-28" value="1" style="rounded=0;whiteSpace=wrap;html=1;" parent="1" vertex="1">
                    <mxGeometry x="120" y="160" width="30" height="30" as="geometry"/>
                </mxCell>
                <mxCell id="JUgn5Z8Xf90ZQO_HXgAD-29" value="" style="rounded=0;whiteSpace=wrap;html=1;" parent="1" vertex="1">
                    <mxGeometry x="150" y="160" width="30" height="30" as="geometry"/>
                </mxCell>
                <mxCell id="JUgn5Z8Xf90ZQO_HXgAD-30" value="2" style="rounded=0;whiteSpace=wrap;html=1;" parent="1" vertex="1">
                    <mxGeometry x="210" y="160" width="30" height="30" as="geometry"/>
                </mxCell>
                <mxCell id="JUgn5Z8Xf90ZQO_HXgAD-31" value="" style="rounded=0;whiteSpace=wrap;html=1;" parent="1" vertex="1">
                    <mxGeometry x="240" y="160" width="30" height="30" as="geometry"/>
                </mxCell>
                <mxCell id="JUgn5Z8Xf90ZQO_HXgAD-32" style="edgeStyle=orthogonalEdgeStyle;rounded=0;orthogonalLoop=1;jettySize=auto;html=1;entryX=0;entryY=0.5;entryDx=0;entryDy=0;startArrow=oval;startFill=1;sourcePerimeterSpacing=0;exitX=0.5;exitY=0.5;exitDx=0;exitDy=0;exitPerimeter=0;" parent="1" source="JUgn5Z8Xf90ZQO_HXgAD-29" target="JUgn5Z8Xf90ZQO_HXgAD-30" edge="1">
                    <mxGeometry relative="1" as="geometry">
                        <mxPoint x="170" y="175" as="sourcePoint"/>
                        <Array as="points"/>
                    </mxGeometry>
                </mxCell>
                <mxCell id="JUgn5Z8Xf90ZQO_HXgAD-33" value="3" style="rounded=0;whiteSpace=wrap;html=1;" parent="1" vertex="1">
                    <mxGeometry x="300" y="160" width="30" height="30" as="geometry"/>
                </mxCell>
                <mxCell id="JUgn5Z8Xf90ZQO_HXgAD-34" value="" style="rounded=0;whiteSpace=wrap;html=1;" parent="1" vertex="1">
                    <mxGeometry x="330" y="160" width="30" height="30" as="geometry"/>
                </mxCell>
                <mxCell id="JUgn5Z8Xf90ZQO_HXgAD-35" style="edgeStyle=orthogonalEdgeStyle;rounded=0;orthogonalLoop=1;jettySize=auto;html=1;exitX=0.5;exitY=0.5;exitDx=0;exitDy=0;entryX=0;entryY=0.5;entryDx=0;entryDy=0;startArrow=oval;startFill=1;sourcePerimeterSpacing=0;exitPerimeter=0;" parent="1" source="JUgn5Z8Xf90ZQO_HXgAD-31" target="JUgn5Z8Xf90ZQO_HXgAD-33" edge="1">
                    <mxGeometry relative="1" as="geometry"/>
                </mxCell>
                <mxCell id="PfzHLWImFwLWcUM0Ov9R-3" value="" style="group" parent="1" vertex="1" connectable="0">
                    <mxGeometry x="338.75" y="168.775" width="12.5" height="12.45" as="geometry"/>
                </mxCell>
                <mxCell id="PfzHLWImFwLWcUM0Ov9R-1" value="" style="endArrow=none;html=1;rounded=0;sourcePerimeterSpacing=0;exitX=1;exitY=1;exitDx=0;exitDy=0;endFill=0;" parent="PfzHLWImFwLWcUM0Ov9R-3" edge="1">
                    <mxGeometry width="50" height="50" relative="1" as="geometry">
                        <mxPoint y="12.45" as="sourcePoint"/>
                        <mxPoint x="12.5" y="12.45" as="targetPoint"/>
                    </mxGeometry>
                </mxCell>
                <mxCell id="PfzHLWImFwLWcUM0Ov9R-2" value="" style="endArrow=none;html=1;rounded=0;sourcePerimeterSpacing=0;endFill=0;" parent="PfzHLWImFwLWcUM0Ov9R-3" edge="1">
                    <mxGeometry width="50" height="50" relative="1" as="geometry">
                        <mxPoint x="6.25" y="12.45" as="sourcePoint"/>
                        <mxPoint x="6.25" as="targetPoint"/>
                    </mxGeometry>
                </mxCell>
                <mxCell id="sjRgw0LQIVesUpbjJ5Lf-1" value="l1" style="rounded=0;whiteSpace=wrap;html=1;align=right;labelPosition=left;verticalLabelPosition=middle;verticalAlign=middle;fontFamily=Courier New;fillColor=#fff2cc;strokeColor=#d6b656;" parent="1" vertex="1">
                    <mxGeometry x="120" y="80" width="30" height="30" as="geometry"/>
                </mxCell>
                <mxCell id="sjRgw0LQIVesUpbjJ5Lf-3" value="" style="edgeStyle=orthogonalEdgeStyle;rounded=0;orthogonalLoop=1;jettySize=auto;html=1;sourcePerimeterSpacing=0;startArrow=oval;startFill=1;exitX=0.5;exitY=0.5;exitDx=0;exitDy=0;exitPerimeter=0;entryX=0.5;entryY=0;entryDx=0;entryDy=0;curved=1;" parent="1" source="sjRgw0LQIVesUpbjJ5Lf-1" target="JUgn5Z8Xf90ZQO_HXgAD-28" edge="1">
                    <mxGeometry relative="1" as="geometry">
                        <mxPoint x="30" y="175" as="sourcePoint"/>
                        <mxPoint x="100" y="200" as="targetPoint"/>
                    </mxGeometry>
                </mxCell>
                <mxCell id="sjRgw0LQIVesUpbjJ5Lf-20" value="l2" style="rounded=0;whiteSpace=wrap;html=1;align=right;labelPosition=left;verticalLabelPosition=middle;verticalAlign=middle;fontFamily=Courier New;fillColor=#fff2cc;strokeColor=#d6b656;" parent="1" vertex="1">
                    <mxGeometry x="400" y="80" width="30" height="30" as="geometry"/>
                </mxCell>
                <mxCell id="sjRgw0LQIVesUpbjJ5Lf-21" value="" style="edgeStyle=orthogonalEdgeStyle;rounded=0;orthogonalLoop=1;jettySize=auto;html=1;sourcePerimeterSpacing=0;startArrow=oval;startFill=1;exitX=0.5;exitY=0.5;exitDx=0;exitDy=0;exitPerimeter=0;entryX=0.5;entryY=0;entryDx=0;entryDy=0;curved=1;" parent="1" source="sjRgw0LQIVesUpbjJ5Lf-20" target="sjRgw0LQIVesUpbjJ5Lf-22" edge="1">
                    <mxGeometry relative="1" as="geometry">
                        <mxPoint x="310" y="175" as="sourcePoint"/>
                        <mxPoint x="400" y="174.9999999999999" as="targetPoint"/>
                    </mxGeometry>
                </mxCell>
                <mxCell id="sjRgw0LQIVesUpbjJ5Lf-22" value="4" style="rounded=0;whiteSpace=wrap;html=1;" parent="1" vertex="1">
                    <mxGeometry x="400" y="160" width="30" height="30" as="geometry"/>
                </mxCell>
                <mxCell id="sjRgw0LQIVesUpbjJ5Lf-23" value="" style="rounded=0;whiteSpace=wrap;html=1;" parent="1" vertex="1">
                    <mxGeometry x="430" y="160" width="30" height="30" as="geometry"/>
                </mxCell>
                <mxCell id="sjRgw0LQIVesUpbjJ5Lf-24" value="5" style="rounded=0;whiteSpace=wrap;html=1;" parent="1" vertex="1">
                    <mxGeometry x="490" y="160" width="30" height="30" as="geometry"/>
                </mxCell>
                <mxCell id="sjRgw0LQIVesUpbjJ5Lf-25" value="" style="rounded=0;whiteSpace=wrap;html=1;" parent="1" vertex="1">
                    <mxGeometry x="520" y="160" width="30" height="30" as="geometry"/>
                </mxCell>
                <mxCell id="sjRgw0LQIVesUpbjJ5Lf-26" style="edgeStyle=orthogonalEdgeStyle;rounded=0;orthogonalLoop=1;jettySize=auto;html=1;exitX=0.5;exitY=0.5;exitDx=0;exitDy=0;entryX=0;entryY=0.5;entryDx=0;entryDy=0;startArrow=oval;startFill=1;sourcePerimeterSpacing=0;exitPerimeter=0;" parent="1" source="sjRgw0LQIVesUpbjJ5Lf-23" target="sjRgw0LQIVesUpbjJ5Lf-24" edge="1">
                    <mxGeometry relative="1" as="geometry"/>
                </mxCell>
                <mxCell id="sjRgw0LQIVesUpbjJ5Lf-27" value="" style="group" parent="1" vertex="1" connectable="0">
                    <mxGeometry x="528.75" y="168.77499999999998" width="12.5" height="12.45" as="geometry"/>
                </mxCell>
                <mxCell id="sjRgw0LQIVesUpbjJ5Lf-28" value="" style="endArrow=none;html=1;rounded=0;sourcePerimeterSpacing=0;exitX=1;exitY=1;exitDx=0;exitDy=0;endFill=0;" parent="sjRgw0LQIVesUpbjJ5Lf-27" edge="1">
                    <mxGeometry width="50" height="50" relative="1" as="geometry">
                        <mxPoint y="12.45" as="sourcePoint"/>
                        <mxPoint x="12.5" y="12.45" as="targetPoint"/>
                    </mxGeometry>
                </mxCell>
                <mxCell id="sjRgw0LQIVesUpbjJ5Lf-29" value="" style="endArrow=none;html=1;rounded=0;sourcePerimeterSpacing=0;endFill=0;" parent="sjRgw0LQIVesUpbjJ5Lf-27" edge="1">
                    <mxGeometry width="50" height="50" relative="1" as="geometry">
                        <mxPoint x="6.25" y="12.45" as="sourcePoint"/>
                        <mxPoint x="6.25" as="targetPoint"/>
                    </mxGeometry>
                </mxCell>
                <mxCell id="sjRgw0LQIVesUpbjJ5Lf-32" value="1" style="rounded=0;whiteSpace=wrap;html=1;" parent="1" vertex="1">
                    <mxGeometry x="120" y="240" width="30" height="30" as="geometry"/>
                </mxCell>
                <mxCell id="sjRgw0LQIVesUpbjJ5Lf-33" value="" style="rounded=0;whiteSpace=wrap;html=1;" parent="1" vertex="1">
                    <mxGeometry x="150" y="240" width="30" height="30" as="geometry"/>
                </mxCell>
                <mxCell id="sjRgw0LQIVesUpbjJ5Lf-34" value="2" style="rounded=0;whiteSpace=wrap;html=1;" parent="1" vertex="1">
                    <mxGeometry x="210" y="240" width="30" height="30" as="geometry"/>
                </mxCell>
                <mxCell id="sjRgw0LQIVesUpbjJ5Lf-35" value="" style="rounded=0;whiteSpace=wrap;html=1;" parent="1" vertex="1">
                    <mxGeometry x="240" y="240" width="30" height="30" as="geometry"/>
                </mxCell>
                <mxCell id="sjRgw0LQIVesUpbjJ5Lf-36" style="edgeStyle=orthogonalEdgeStyle;rounded=0;orthogonalLoop=1;jettySize=auto;html=1;entryX=0;entryY=0.5;entryDx=0;entryDy=0;startArrow=oval;startFill=1;sourcePerimeterSpacing=0;exitX=0.5;exitY=0.5;exitDx=0;exitDy=0;exitPerimeter=0;" parent="1" source="sjRgw0LQIVesUpbjJ5Lf-33" target="sjRgw0LQIVesUpbjJ5Lf-34" edge="1">
                    <mxGeometry relative="1" as="geometry">
                        <mxPoint x="170" y="255" as="sourcePoint"/>
                        <Array as="points"/>
                    </mxGeometry>
                </mxCell>
                <mxCell id="sjRgw0LQIVesUpbjJ5Lf-37" value="3" style="rounded=0;whiteSpace=wrap;html=1;" parent="1" vertex="1">
                    <mxGeometry x="300" y="240" width="30" height="30" as="geometry"/>
                </mxCell>
                <mxCell id="sjRgw0LQIVesUpbjJ5Lf-38" value="" style="rounded=0;whiteSpace=wrap;html=1;" parent="1" vertex="1">
                    <mxGeometry x="330" y="240" width="30" height="30" as="geometry"/>
                </mxCell>
                <mxCell id="sjRgw0LQIVesUpbjJ5Lf-39" style="edgeStyle=orthogonalEdgeStyle;rounded=0;orthogonalLoop=1;jettySize=auto;html=1;exitX=0.5;exitY=0.5;exitDx=0;exitDy=0;entryX=0;entryY=0.5;entryDx=0;entryDy=0;startArrow=oval;startFill=1;sourcePerimeterSpacing=0;exitPerimeter=0;" parent="1" source="sjRgw0LQIVesUpbjJ5Lf-35" target="sjRgw0LQIVesUpbjJ5Lf-37" edge="1">
                    <mxGeometry relative="1" as="geometry"/>
                </mxCell>
                <mxCell id="sjRgw0LQIVesUpbjJ5Lf-43" value="l3" style="rounded=0;whiteSpace=wrap;html=1;align=right;labelPosition=left;verticalLabelPosition=middle;verticalAlign=middle;fontFamily=Courier New;fillColor=#fff2cc;strokeColor=#d6b656;" parent="1" vertex="1">
                    <mxGeometry x="40" y="240" width="30" height="30" as="geometry"/>
                </mxCell>
                <mxCell id="sjRgw0LQIVesUpbjJ5Lf-44" value="" style="edgeStyle=orthogonalEdgeStyle;rounded=0;orthogonalLoop=1;jettySize=auto;html=1;sourcePerimeterSpacing=0;startArrow=oval;startFill=1;exitX=0.5;exitY=0.5;exitDx=0;exitDy=0;exitPerimeter=0;entryX=0;entryY=0.5;entryDx=0;entryDy=0;curved=1;" parent="1" source="sjRgw0LQIVesUpbjJ5Lf-43" target="sjRgw0LQIVesUpbjJ5Lf-32" edge="1">
                    <mxGeometry relative="1" as="geometry">
                        <mxPoint x="30" y="255" as="sourcePoint"/>
                        <mxPoint x="100" y="280" as="targetPoint"/>
                    </mxGeometry>
                </mxCell>
                <mxCell id="sjRgw0LQIVesUpbjJ5Lf-46" style="edgeStyle=orthogonalEdgeStyle;curved=1;rounded=0;orthogonalLoop=1;jettySize=auto;html=1;entryX=0.5;entryY=1;entryDx=0;entryDy=0;fontFamily=Courier New;startArrow=oval;startFill=1;sourcePerimeterSpacing=0;exitX=0.5;exitY=0.5;exitDx=0;exitDy=0;exitPerimeter=0;" parent="1" source="sjRgw0LQIVesUpbjJ5Lf-38" target="sjRgw0LQIVesUpbjJ5Lf-22" edge="1">
                    <mxGeometry relative="1" as="geometry"/>
                </mxCell>
            </root>
        </mxGraphModel>
    </diagram>
</mxfile>